<svg width="143" height="152" fill="none" xmlns="http://www.w3.org/2000/svg"><path d="m116.551 106.905-19.998-1.425a5.91 5.91 0 0 0-4.05 1.247 6.454 6.454 0 0 0-2.346 3.711L85.241 131.1A50.156 50.156 0 0 1 71.5 133c-4.748 0-9.356-.653-13.741-1.9l-4.916-20.662a6.853 6.853 0 0 0-2.346-3.711c-1.145-.921-2.598-1.336-4.05-1.247l-19.998 1.425c-4.915-8.075-7.96-17.575-8.49-27.788l16.953-11.34c1.229-.832 2.123-2.079 2.57-3.533a6.948 6.948 0 0 0-.14-4.453l-7.457-19.772c5.865-7.6 13.49-13.597 22.26-17.19l15.417 13.657C68.679 37.466 70.076 38 71.5 38a5.928 5.928 0 0 0 3.938-1.514L90.855 22.83c8.742 3.592 16.395 9.589 22.232 17.189L105.63 59.79a6.952 6.952 0 0 0-.14 4.453 6.698 6.698 0 0 0 2.57 3.533l16.953 11.34c-.53 10.213-3.575 19.713-8.49 27.788h.028ZM71.5 152c18.963 0 37.149-8.007 50.558-22.26C135.467 115.487 143 96.156 143 76c0-20.157-7.533-39.487-20.942-53.74C108.649 8.007 90.463 0 71.5 0S34.35 8.007 20.942 22.26C7.533 36.513 0 55.844 0 76s7.533 39.487 20.942 53.74C34.35 143.993 52.537 152 71.5 152Zm3.938-96.692a6.388 6.388 0 0 0-7.876 0L54.184 65.609c-2.346 1.811-3.324 5.018-2.43 7.957l5.11 16.714c.895 2.939 3.464 4.928 6.369 4.928h16.534c2.905 0 5.474-1.99 6.368-4.928l5.111-16.714c.894-2.94-.084-6.146-2.43-7.957L75.438 55.28v.029Z" fill="#22C55E"/></svg>